<?xml version="1.0" encoding="UTF-8" standalone="no"?>
<!DOCTYPE svg PUBLIC "-//W3C//DTD SVG 1.1//EN" "http://www.w3.org/Graphics/SVG/1.1/DTD/svg11.dtd">
<svg version="1.1" xmlns="http://www.w3.org/2000/svg" xmlns:xlink="http://www.w3.org/1999/xlink" preserveAspectRatio="xMidYMid meet" viewBox="126.59999999999998 62.46250301206922 388.90000000000003 389.0374969879308" width="384.9" height="385.04"><defs><path d="M153.3 63.5C146.4 63.5 139.5 63.5 132.6 63.5C129.9 63.5 127.6 65.8 127.6 68.5C127.6 116.5 127.6 164.6 127.6 212.6C127.6 219.5 127.6 226.4 127.6 233.3C127.6 237.6 133.1 239.9 136.1 236.8C154.8 218.2 173.4 199.6 192.1 181.1C221.8 151.5 251.6 121.9 281.3 92.3C288.1 85.5 294.9 78.8 301.7 72C306.3 67.5 299.2 60.4 294.6 64.9C275.9 83.5 257.3 102.1 238.6 120.6C208.9 150.2 179.1 179.8 149.4 209.4C142.6 216.2 135.8 222.9 129 229.7C131.8 230.9 134.7 232.1 137.5 233.2C137.5 185.2 137.5 137.1 137.5 89.1C137.5 82.2 137.5 75.3 137.5 68.4C135.8 70.1 134.2 71.7 132.5 73.4C180.8 73.4 229.1 73.4 277.4 73.4C284.3 73.4 291.2 73.4 298.1 73.4C304.7 73.5 304.7 63.5 298.2 63.5C298.2 63.5 298.2 63.5 298.2 63.5C233.8 63.5 185.5 63.5 153.3 63.5Z" id="c6DIm0RNT9"></path><path d="M283.28 109.66C253.78 138.96 224.38 168.16 194.88 197.46C174.18 218.06 153.38 238.66 132.68 259.26C131.58 260.36 130.18 261.46 129.18 262.76C127.08 265.46 127.68 269.46 127.68 272.76C127.68 288.66 127.68 304.46 127.68 320.36C127.68 354.76 127.68 389.16 127.68 423.56C127.68 424.26 127.68 424.96 127.68 425.56C127.68 429.86 133.18 432.16 136.18 429.06C148.08 417.26 159.88 405.36 171.78 393.56C200.28 365.16 228.68 336.76 257.18 308.26C291.58 273.86 326.08 239.46 360.48 205.06C390.28 175.36 419.98 145.66 449.78 115.86C464.18 101.46 479.28 87.56 493.08 72.56C493.28 72.36 493.48 72.16 493.68 71.96C496.78 68.86 494.48 63.46 490.18 63.46C443.78 63.46 397.38 63.46 351.08 63.46C344.58 63.46 338.18 63.46 331.68 63.46C325.28 63.46 325.28 73.46 331.68 73.46C378.08 73.46 424.48 73.46 470.78 73.46C477.28 73.46 483.68 73.46 490.18 73.46C488.98 70.66 487.78 67.76 486.68 64.96C474.78 76.76 462.98 88.66 451.08 100.46C422.58 128.86 394.18 157.26 365.68 185.76C331.28 220.16 296.78 254.56 262.38 288.96C232.58 318.66 202.88 348.36 173.08 378.16C163.28 387.96 153.48 397.76 143.68 407.56C139.18 411.96 133.48 416.36 129.78 421.46C129.58 421.66 129.38 421.86 129.18 422.06C131.98 423.26 134.88 424.46 137.68 425.56C137.68 379.16 137.68 332.66 137.68 286.26C137.68 279.56 137.68 272.86 137.68 266.26C137.18 267.46 136.68 268.66 136.18 269.76C158.68 247.46 181.08 225.16 203.58 202.86C239.28 167.46 274.88 132.06 310.58 96.56C318.78 88.46 326.98 80.26 335.18 72.16C339.88 67.66 332.78 60.56 328.18 65.06C328.18 65.06 328.18 65.06 328.18 65.06C308.25 84.86 293.28 99.73 283.28 109.66Z" id="b1eLunWZSF"></path><path d="M447.4 329.3C417.4 359.3 387.4 389.3 357.4 419.3C350.5 426.2 343.6 433.1 336.7 440C333.6 443.1 335.9 448.5 340.2 448.5C388.9 448.5 437.5 448.5 486.2 448.5C493.1 448.5 500 448.5 506.9 448.5C509.6 448.5 511.9 446.2 511.9 443.5C512.1 394.6 512.2 345.7 512.4 296.9C512.4 290 512.4 283.2 512.5 276.3C512.5 269.9 502.5 269.9 502.5 276.3C502.3 325.2 502.2 374.1 502 422.9C502 429.8 502 436.6 501.9 443.5C503.6 441.8 505.2 440.2 506.9 438.5C458.2 438.5 409.6 438.5 360.9 438.5C354 438.5 347.1 438.5 340.2 438.5C341.4 441.3 342.6 444.2 343.7 447C362.5 428.2 381.4 409.3 400.2 390.5C430.2 360.5 460.2 330.5 490.2 300.5C497.1 293.6 504 286.7 510.9 279.8C515.5 275.3 508.4 268.2 503.9 272.8C503.9 272.8 503.9 272.8 503.9 272.8C478.77 297.93 459.93 316.77 447.4 329.3Z" id="a2ZpK1UPCz"></path><path d="M224 360.8C197.6 387.2 171.2 413.6 144.8 440C141.7 443.1 144 448.5 148.3 448.5C192.5 448.5 236.7 448.5 280.9 448.5C288.9 448.5 296.8 448.5 304.8 448.5C308.1 448.5 310.1 447.3 312.4 445C323.4 434 334.3 423 345.3 412C384.4 372.8 423.6 333.5 462.7 294.3C476.4 280.5 490.2 266.8 503.9 253C506 250.9 508.6 248.8 510.4 246.5C513.2 242.9 511.9 235.8 511.9 231.6C512.1 183.8 512.2 136 512.4 88.3C512.4 87 512.4 85.8 512.4 84.5C512.4 78.1 502.4 78.1 502.4 84.5C502.2 130.9 502.1 177.3 501.9 223.6C501.9 230.1 501.9 236.5 501.8 243C502.3 241.8 502.8 240.6 503.3 239.5C480.7 262.1 458.2 284.8 435.6 307.4C399.7 343.4 363.8 379.4 327.8 415.4C319.6 423.6 311.4 431.8 303.3 440C304.5 439.5 305.7 439 306.8 438.5C260.4 438.5 214 438.5 167.7 438.5C161.2 438.5 154.8 438.5 148.3 438.5C149.5 441.3 150.7 444.2 151.8 447C245.1 353.7 338.4 260.4 431.7 167.1C458.1 140.7 484.5 114.3 510.9 87.9C515.5 83.5 508.4 76.4 503.9 80.9C410.6 174.2 317.3 267.5 224 360.8Z" id="b3cqKJWDM7"></path></defs><g><g><use xlink:href="#c6DIm0RNT9" opacity="1" fill="#ffffff" fill-opacity="1"></use><g><use xlink:href="#c6DIm0RNT9" opacity="1" fill-opacity="0" stroke="#000000" stroke-width="1" stroke-opacity="0"></use></g></g><g><use xlink:href="#b1eLunWZSF" opacity="1" fill="#ffffff" fill-opacity="1"></use><g><use xlink:href="#b1eLunWZSF" opacity="1" fill-opacity="0" stroke="#000000" stroke-width="1" stroke-opacity="0"></use></g></g><g><use xlink:href="#a2ZpK1UPCz" opacity="1" fill="#ffffff" fill-opacity="1"></use><g><use xlink:href="#a2ZpK1UPCz" opacity="1" fill-opacity="0" stroke="#000000" stroke-width="1" stroke-opacity="0"></use></g></g><g><use xlink:href="#b3cqKJWDM7" opacity="1" fill="#ffffff" fill-opacity="1"></use><g><use xlink:href="#b3cqKJWDM7" opacity="1" fill-opacity="0" stroke="#000000" stroke-width="1" stroke-opacity="0"></use></g></g></g></svg>