<svg xmlns="http://www.w3.org/2000/svg" xmlns:xlink="http://www.w3.org/1999/xlink" version="1.1" x="0px" y="0px" viewBox="0 0 100 125" enable-background="new 0 0 100 100" xml:space="preserve"><path d="M94.517,93.064L94.517,93.064V95h-1.936v-1.936h-17.42V95h-1.936v-1.936H55.807V95h-1.936v-1.936h-17.42V95h-1.936v-1.936  H17.096V95h-1.936v-1.936H7.419v-3.871v-5.807H5.483v-1.936h1.936V64.032H5.483v-1.936h1.936V44.677H5.483v-1.936h1.936V25.323  H5.483v-1.936h1.936V6.936H5.483V5h5.807v1.129v0.807v16.452v1.936v17.419v1.936v17.419v1.936v17.419v1.936v5.807h3.871h1.936  h17.419h1.936h17.42h1.936h17.419h1.936h17.42h1.936l0,0V93.064z M16.612,65.968c0.802,0,1.452-0.649,1.452-1.451  c0-0.803-0.649-1.452-1.452-1.452s-1.452,0.649-1.452,1.452C15.161,65.318,15.81,65.968,16.612,65.968z M26.29,56.29  c0.802,0,1.451-0.649,1.451-1.451c0-0.803-0.649-1.452-1.451-1.452c-0.803,0-1.452,0.649-1.452,1.452  C24.838,55.641,25.487,56.29,26.29,56.29z M30.161,46.613c0.803,0,1.452-0.649,1.452-1.452c0-0.802-0.649-1.452-1.452-1.452  c-0.802,0-1.452,0.649-1.452,1.452C28.709,45.964,29.358,46.613,30.161,46.613z M28.709,74.193c0,0.803,0.649,1.452,1.452,1.452  c0.803,0,1.452-0.649,1.452-1.452c0-0.802-0.649-1.451-1.452-1.451C29.358,72.742,28.709,73.392,28.709,74.193z M38.387,64.517  c0,0.802,0.649,1.451,1.452,1.451c0.802,0,1.452-0.649,1.452-1.451c0-0.803-0.649-1.452-1.452-1.452  C39.036,63.064,38.387,63.714,38.387,64.517z M57.742,54.839c0,0.802,0.648,1.451,1.451,1.451c0.802,0,1.452-0.649,1.452-1.451  c0-0.803-0.65-1.452-1.452-1.452C58.391,53.387,57.742,54.036,57.742,54.839z M48.064,51.936c0,0.803,0.649,1.451,1.452,1.451  s1.452-0.648,1.452-1.451s-0.649-1.452-1.452-1.452S48.064,51.133,48.064,51.936z M49.516,41.774c0.802,0,1.452-0.649,1.452-1.452  c0-0.803-0.649-1.452-1.452-1.452s-1.452,0.649-1.452,1.452C48.064,41.125,48.713,41.774,49.516,41.774z M39.838,34.032  c0.802,0,1.452-0.649,1.452-1.452s-0.649-1.452-1.452-1.452c-0.803,0-1.452,0.649-1.452,1.452S39.036,34.032,39.838,34.032z   M59.193,34.032c0.802,0,1.452-0.649,1.452-1.452s-0.65-1.452-1.452-1.452c-0.803,0-1.451,0.649-1.451,1.452  S58.391,34.032,59.193,34.032z M67.419,35.484c0,0.802,0.648,1.452,1.452,1.452c0.802,0,1.451-0.649,1.451-1.452  s-0.649-1.452-1.451-1.452C68.067,34.032,67.419,34.682,67.419,35.484z M68.871,17.581c0.802,0,1.451-0.649,1.451-1.452  s-0.649-1.452-1.451-1.452c-0.804,0-1.452,0.649-1.452,1.452S68.067,17.581,68.871,17.581z M72.742,20.484  c0.801,0,1.451-0.649,1.451-1.452s-0.65-1.452-1.451-1.452c-0.804,0-1.452,0.649-1.452,1.452S71.938,20.484,72.742,20.484z   M77.097,27.742c0,0.803,0.648,1.452,1.452,1.452c0.801,0,1.451-0.649,1.451-1.452c0-0.802-0.65-1.451-1.451-1.451  C77.745,26.291,77.097,26.939,77.097,27.742z M87.742,12.258c0,0.802,0.648,1.451,1.451,1.451c0.802,0,1.452-0.649,1.452-1.451  c0-0.803-0.65-1.452-1.452-1.452C88.391,10.807,87.742,11.456,87.742,12.258z M16.789,77.32l71.613-66.774l-1.319-1.416  L15.468,75.905L16.789,77.32z"/>
</svg>
